<svg width="16" height="16" viewBox="0 0 16 16" fill="none" xmlns="http://www.w3.org/2000/svg">
<path fill-rule="evenodd" clip-rule="evenodd" d="M2 5.36988C2 3.50324 3.47071 2 5.27273 2C6.21563 2 7.02052 2.52488 7.54919 2.97986C7.72225 3.1288 7.87377 3.27721 8 3.41036C8.12623 3.27721 8.27775 3.1288 8.45081 2.97986C8.97948 2.52488 9.78437 2 10.7273 2C12.5293 2 14 3.50324 14 5.36988C14 6.08779 13.8582 7.11094 13.0863 8.34678C12.3224 9.56968 10.9589 10.9733 8.56494 12.5015L8.5628 12.5029C8.39321 12.61 8.19851 12.6667 8 12.6667C7.80149 12.6667 7.60679 12.61 7.4372 12.5029L7.43506 12.5015C5.04106 10.9733 3.67757 9.56968 2.91371 8.34678C2.14177 7.11094 2 6.08779 2 5.36988ZM7.56287 4.60422L7.56243 4.60362L7.5552 4.59388C7.54816 4.58447 7.53674 4.56941 7.52116 4.54949C7.48996 4.5096 7.44235 4.45057 7.38016 4.37879C7.25513 4.23451 7.07453 4.04259 6.85304 3.85197C6.39457 3.4574 5.83583 3.13273 5.27273 3.13273C4.06275 3.13273 3.09091 4.13963 3.09091 5.36988C3.09091 5.90194 3.18778 6.70389 3.82897 7.73041C4.47765 8.7689 5.70013 10.0634 8 11.5324C10.2999 10.0634 11.5224 8.7689 12.171 7.73041C12.8122 6.70389 12.9091 5.90194 12.9091 5.36988C12.9091 4.13963 11.9373 3.13273 10.7273 3.13273C10.1642 3.13273 9.60543 3.4574 9.14696 3.85197C8.92547 4.04259 8.74487 4.23451 8.61984 4.37879C8.55765 4.45057 8.51004 4.5096 8.47884 4.54949C8.46326 4.56941 8.45184 4.58447 8.4448 4.59388L8.43757 4.60362L8.43713 4.60422C8.43713 4.60422 8.13713 4.60422 8 4.60422M7.56287 4.60422L7.56327 4.60478C7.66626 4.7475 7.82821 4.83183 8 4.83183C8.17204 4.83183 8.32065 4.75424 8.43713 4.60422" fill="#212121"/>
</svg>
