<svg width="16" height="16" viewBox="0 0 16 16" fill="none" xmlns="http://www.w3.org/2000/svg">
<path fill-rule="evenodd" clip-rule="evenodd" d="M5.12085 2C3.24975 2 1.72266 3.50324 1.72266 5.36988C1.72266 6.08779 1.86986 7.11094 2.6714 8.34678C3.46454 9.56968 4.8803 10.9733 7.36609 12.5015L7.36831 12.5029C7.5444 12.61 7.74656 12.6667 7.95268 12.6667C8.15881 12.6667 8.36097 12.61 8.53706 12.5029L8.53928 12.5015C11.0251 10.9733 12.4408 9.56968 13.234 8.34678C14.0355 7.11094 14.1827 6.08779 14.1827 5.36988C14.1827 3.50324 12.6556 2 10.7845 2C9.80546 2 8.96971 2.52488 8.42077 2.97986C8.24108 3.1288 8.08375 3.27721 7.95268 3.41036C7.82161 3.27721 7.66428 3.1288 7.48459 2.97986C6.93565 2.52488 6.0999 2 5.12085 2Z" fill="#212121"/>
</svg>
