<svg width="16" height="16" viewBox="0 0 16 16" fill="none" xmlns="http://www.w3.org/2000/svg">
<path fill-rule="evenodd" clip-rule="evenodd" d="M13.3034 3.76894L11.8978 2.36331C11.4134 1.8789 10.628 1.8789 10.1436 2.36331L3.96395 8.54298L7.1238 11.7028L13.3034 5.52317C13.7878 5.03876 13.7878 4.25336 13.3034 3.76894ZM6.36955 12.4571L3.2097 9.29723L3.09575 9.41118C2.98124 9.51321 2.8897 9.64552 2.83519 9.80405C2.82163 9.84293 2.81069 9.88253 2.80236 9.92256L2.3661 11.813C2.16261 12.865 2.50008 13.5 3.85367 13.3006L5.7413 12.865C5.91641 12.8292 6.08332 12.7433 6.21919 12.6074L6.36955 12.4571Z" fill="#212121"/>
</svg>
