<svg width="16" height="16" viewBox="0 0 16 16" fill="none" xmlns="http://www.w3.org/2000/svg">
<path fill-rule="evenodd" clip-rule="evenodd" d="M3.90472 6.33333C3.90472 4.62388 5.29051 3.2381 6.99996 3.2381C8.70941 3.2381 10.0952 4.62388 10.0952 6.33333C10.0952 8.04279 8.70941 9.42857 6.99996 9.42857C5.29051 9.42857 3.90472 8.04279 3.90472 6.33333ZM6.99996 2C4.60673 2 2.66663 3.9401 2.66663 6.33333C2.66663 8.72657 4.60673 10.6667 6.99996 10.6667C7.70272 10.6667 8.36642 10.4994 8.95338 10.2024L11.1866 13.0323C11.399 13.3015 11.7875 13.346 12.0544 13.1317C12.3212 12.9174 12.3654 12.5255 12.1529 12.2563L9.9694 9.48933C10.809 8.69902 11.3333 7.5774 11.3333 6.33333C11.3333 3.9401 9.39319 2 6.99996 2Z" fill="#212121"/>
</svg>
