<svg width="16" height="16" viewBox="0 0 16 16" fill="none" xmlns="http://www.w3.org/2000/svg">
<path fill-rule="evenodd" clip-rule="evenodd" d="M8.36139 8.55634C8.80136 8.20303 9.44337 8.27657 9.79361 8.72039L12.2415 11.8223C12.5901 12.2641 12.5178 12.9058 12.0799 13.2575C11.64 13.6108 10.998 13.5373 10.6477 13.0934L8.19984 9.99152C7.85124 9.54978 7.92348 8.908 8.36139 8.55634Z" fill="#212121"/>
<path fill-rule="evenodd" clip-rule="evenodd" d="M7.01913 8.53997C8.19042 8.53997 9.13994 7.59045 9.13994 6.41915C9.13994 5.24785 8.19042 4.29833 7.01913 4.29833C5.84783 4.29833 4.89831 5.24785 4.89831 6.41915C4.89831 7.59045 5.84783 8.53997 7.01913 8.53997ZM11.4383 6.41915C11.4383 8.85978 9.45975 10.8383 7.01913 10.8383C4.5785 10.8383 2.59998 8.85978 2.59998 6.41915C2.59998 3.97852 4.5785 2 7.01913 2C9.45975 2 11.4383 3.97852 11.4383 6.41915Z" fill="#212121"/>
</svg>
