<svg width="16" height="16" viewBox="0 0 16 16" fill="none" xmlns="http://www.w3.org/2000/svg">
<path d="M4.5 5.2775L5.2775 4.5L11.5 10.722L10.722 11.5L4.5 5.2775Z" fill="#212121"/>
<path d="M8.00001 0.99989C7.07916 0.99418 6.16634 1.17134 5.31449 1.5211C4.46263 1.87086 3.68869 2.38626 3.03754 3.03741C2.38639 3.68856 1.87099 4.46251 1.52123 5.31436C1.17146 6.16622 0.994302 7.07904 1.00001 7.99989C0.994302 8.92074 1.17146 9.83356 1.52123 10.6854C1.87099 11.5373 2.38639 12.3112 3.03754 12.9624C3.68869 13.6135 4.46263 14.1289 5.31449 14.4787C6.16634 14.8284 7.07916 15.0056 8.00001 14.9999C8.92086 15.0056 9.83368 14.8284 10.6855 14.4787C11.5374 14.1289 12.3113 13.6135 12.9625 12.9624C13.6136 12.3112 14.129 11.5373 14.4788 10.6854C14.8286 9.83356 15.0057 8.92074 15 7.99989C15.0057 7.07904 14.8286 6.16622 14.4788 5.31436C14.129 4.46251 13.6136 3.68856 12.9625 3.03741C12.3113 2.38626 11.5374 1.87086 10.6855 1.5211C9.83368 1.17134 8.92086 0.99418 8.00001 0.99989ZM8.00001 13.9999C6.81332 13.9999 5.65329 13.648 4.66659 12.9887C3.6799 12.3294 2.91086 11.3923 2.45673 10.296C2.00261 9.19963 1.88379 7.99323 2.1153 6.82935C2.34681 5.66546 2.91826 4.59636 3.75737 3.75725C4.59649 2.91813 5.66558 2.34669 6.82947 2.11518C7.99336 1.88367 9.19976 2.00249 10.2961 2.45661C11.3925 2.91074 12.3295 3.67977 12.9888 4.66647C13.6481 5.65316 14 6.8132 14 7.99989C13.9954 9.58977 13.3618 11.1132 12.2376 12.2374C11.1133 13.3616 9.58989 13.9953 8.00001 13.9999Z" fill="#212121"/>
</svg>
