<svg width="16" height="16" viewBox="0 0 16 16" fill="none" xmlns="http://www.w3.org/2000/svg">
<path d="M8.00001 0.99989C7.07916 0.99418 6.16634 1.17134 5.31449 1.5211C4.46263 1.87086 3.68869 2.38626 3.03754 3.03741C2.38639 3.68856 1.87099 4.46251 1.52123 5.31436C1.17146 6.16622 0.994302 7.07904 1.00001 7.99989C0.994302 8.92074 1.17146 9.83356 1.52123 10.6854C1.87099 11.5373 2.38639 12.3112 3.03754 12.9624C3.68869 13.6135 4.46263 14.1289 5.31449 14.4787C6.16634 14.8284 7.07916 15.0056 8.00001 14.9999C8.92086 15.0056 9.83368 14.8284 10.6855 14.4787C11.5374 14.1289 12.3113 13.6135 12.9625 12.9624C13.6136 12.3112 14.129 11.5373 14.4788 10.6854C14.8286 9.83356 15.0057 8.92074 15 7.99989C15.0057 7.07904 14.8286 6.16622 14.4788 5.31436C14.129 4.46251 13.6136 3.68856 12.9625 3.03741C12.3113 2.38626 11.5374 1.87086 10.6855 1.5211C9.83368 1.17134 8.92086 0.99418 8.00001 0.99989ZM10.7225 11.4999L4.50001 5.27789L5.27801 4.49989L11.5 10.7224L10.7225 11.4999Z" fill="#212121"/>
</svg>
